<svg viewBox="0 0 500 500" xmlns="http://www.w3.org/2000/svg" xmlns:bx="https://boxy-svg.com">
    <defs>
      <bx:grid x="0" y="0" width="13.477" height="13.477"></bx:grid>
    </defs>
    <rect x="202.155" width="40.431" height="296.494" style="fill: rgb(255, 255, 255);"></rect>
    <rect x="242.586" y="53.908" width="40.431" height="67.385" style="fill: rgb(255, 255, 255);"></rect>
    <rect x="256.063" y="40.431" width="67.385" height="26.954" style="fill: rgb(255, 255, 255);"></rect>
    <rect x="256.063" y="107.816" width="67.385" height="26.954" style="fill: rgb(255, 255, 255);"></rect>
    <rect x="188.678" y="13.477" width="67.385" height="13.477" style="fill: rgb(255, 255, 255);"></rect>
    <rect x="188.678" y="202.155" width="67.385" height="26.954" style="fill: rgb(255, 255, 255);"></rect>
    <ellipse style="stroke: rgb(255, 255, 255); fill: none; stroke-width: 32px;" cx="222.37" cy="363.879" rx="47.169" ry="53.908"></ellipse>
    <ellipse style="stroke: rgb(255, 255, 255); fill: none; stroke-width: 32px;" cx="222.371" cy="363.879" rx="47.169" ry="53.908"></ellipse>
    <ellipse style="stroke: rgb(255, 255, 255); fill: none; stroke-width: 32px;" cx="221.661" cy="363.879" rx="53.907" ry="53.908"></ellipse>
    <ellipse style="stroke: rgb(255, 255, 255); fill: none; stroke-width: 32px;" cx="221.663" cy="363.879" rx="53.907" ry="53.908"></ellipse>
    <rect x="202.155" width="13.477" height="296.494" style="fill: rgb(181, 181, 181);"></rect>
    <rect x="283.017" y="53.908" width="40.431" height="13.477" style="fill: rgb(181, 181, 181);"></rect>
    <rect x="256.063" y="121.293" width="67.385" height="13.477" style="fill: rgb(181, 181, 181);"></rect>
    <rect x="188.678" y="202.155" width="13.477" height="26.954" style="fill: rgb(181, 181, 181);"></rect>
    <rect x="188.678" y="13.477" width="13.477" height="13.477" style="fill: rgb(181, 181, 181);"></rect>
    <path d="M 159.672 363.773 C 159.672 331.537 186.082 303.077 215.855 303.077" style="fill: none; stroke: rgb(181, 181, 181); stroke-width: 17px;" transform="matrix(0.999993, -0.003654, 0.003654, 0.999993, -1.329126, 0.691922)"></path>
    <path style="fill: rgb(181, 181, 181);" d="M 151.183 363.879 C 150.941 366.016 151.488 372.57 152.453 377.356 C 153.589 382.993 155.755 386.888 156.277 388.626 C 166.475 422.553 207.276 437.952 231.491 433.411 C 239.537 431.902 249.02 429.035 256.063 425.09 C 266.537 419.226 272.82 411.672 271.834 412.171 C 260.744 417.787 259.099 419.316 249.573 422.095 C 237.36 425.658 223.151 425.972 215.632 424.073 C 187.062 416.859 168.034 393.058 168.182 363.879"></path>
  </svg>